<svg width="82" height="73" viewBox="0 0 82 73" fill="none" xmlns="http://www.w3.org/2000/svg">
<path d="M17.2088 8.03747C17.2077 10.1681 16.3 12.211 14.6856 13.7168C13.0712 15.2226 10.8821 16.068 8.60011 16.0669C6.31808 16.0658 4.12996 15.2184 2.51713 13.7111C0.904298 12.2038 -0.00113994 10.16 1.07711e-06 8.02944C0.00114209 5.89883 0.908769 3.85592 2.52322 2.3501C4.13766 0.844293 6.32668 -0.0010643 8.60871 1.00563e-06C10.8907 0.00106631 13.0789 0.848467 14.6917 2.35578C16.3045 3.8631 17.21 5.90687 17.2088 8.03747ZM17.4669 22.0157H0.258133V72.3051H17.4669V22.0157ZM44.6569 22.0157H27.5341V72.3051H44.4848V45.9152C44.4848 31.214 65.0063 29.8483 65.0063 45.9152V72.3051H82V40.4524C82 15.6692 51.6264 16.5931 44.4848 28.7638L44.6569 22.0157Z" fill="black"/>
</svg>
